<?xml version="1.0" encoding="utf-8"?>
<!-- Generator: Adobe Illustrator 19.2.1, SVG Export Plug-In . SVG Version: 6.00 Build 0)  -->
<svg version="1.1" xmlns="http://www.w3.org/2000/svg" xmlns:xlink="http://www.w3.org/1999/xlink" x="0px" y="0px"
	 viewBox="0 0 24 24" style="enable-background:new 0 0 24 24;" xml:space="preserve">
<style type="text/css">
	.st0{fill:#42AAF3;}
	.st1{fill:#F28A1F;}
</style>
<g id="Layer_1">
	<path class="st0" d="M19,17H5c-1.1,0-2,0.9-2,2s0.9,2,2,2h14c1.1,0,2-0.9,2-2S20.1,17,19,17z"/>
	<path class="st0" d="M19,3H5C3.9,3,3,3.9,3,5s0.9,2,2,2h14c1.1,0,2-0.9,2-2S20.1,3,19,3z"/>
</g>
<g id="Layer_1_copy">
	<path class="st1" d="M19,10H5c-1.1,0-2,0.9-2,2s0.9,2,2,2h14c1.1,0,2-0.9,2-2S20.1,10,19,10z"/>
</g>
</svg>
